<svg width="23" height="27" viewBox="0 0 23 27" fill="none" xmlns="http://www.w3.org/2000/svg">
<path d="M21.7994 9.20332C20.916 9.74366 20.1843 10.4991 19.6727 11.3989C19.1611 12.2987 18.8863 13.3134 18.8742 14.3482C18.8777 15.5128 19.2231 16.6508 19.8676 17.6213C20.512 18.5917 21.4273 19.352 22.5 19.8079C22.0771 21.1711 21.4511 22.463 20.6433 23.6401C19.4873 25.3026 18.2786 26.9649 16.4395 26.9649C14.6004 26.9649 14.1274 25.8975 12.0079 25.8975C9.94107 25.8975 9.20537 27 7.52382 27C5.84228 27 4.66884 25.46 3.32004 23.5701C1.53838 20.9226 0.559206 17.8178 0.5 14.6281C0.5 9.37834 3.91566 6.59607 7.27858 6.59607C9.06528 6.59607 10.5542 7.76838 11.6752 7.76838C12.7436 7.76838 14.4077 6.52592 16.4395 6.52592C17.4841 6.499 18.5194 6.72911 19.4541 7.196C20.3887 7.6629 21.1942 8.35224 21.7994 9.20332ZM15.4762 4.30363C16.3718 3.25104 16.8788 1.92329 16.9125 0.542189C16.914 0.360119 16.8964 0.178393 16.8599 0C15.3214 0.150142 13.8988 0.882709 12.8837 2.04744C11.9795 3.05809 11.4534 4.35037 11.3949 5.70468C11.3955 5.86938 11.4131 6.03358 11.4474 6.19468C11.5687 6.21759 11.6918 6.22932 11.8153 6.22975C12.5243 6.17339 13.2145 5.97357 13.8438 5.64246C14.4732 5.31134 15.0285 4.85584 15.4762 4.30363Z" fill="black" fill-opacity="0.8"/>
</svg>
