<svg width="18" height="48" viewBox="0 0 18 48" fill="none" xmlns="http://www.w3.org/2000/svg">
<path d="M16.491 20.477C15.8484 20.8571 15.316 21.3887 14.9439 22.0218C14.5717 22.655 14.3718 23.3691 14.3629 24.0972C14.3655 24.9167 14.6167 25.7175 15.0854 26.4004C15.5541 27.0833 16.2198 27.6183 17 27.9391C16.6924 28.8984 16.2372 29.8075 15.6496 30.6357C14.8089 31.8055 13.9298 32.9753 12.5922 32.9753C11.2546 32.9753 10.9106 32.2242 9.36913 32.2242C7.86573 32.2242 7.33087 33 6.10825 33C4.88563 33 4.03198 31.9164 3.05107 30.5865C1.75522 28.7236 1.04305 26.5387 1 24.2942C1 20.5999 3.4842 18.6422 5.93006 18.6422C7.22955 18.6422 8.3122 19.4673 9.12742 19.4673C9.90452 19.4673 11.1148 18.593 12.5925 18.593C13.3523 18.574 14.1053 18.7359 14.7851 19.0644C15.465 19.393 16.0508 19.8781 16.491 20.477ZM9.22959 18.3836C9.13982 18.3834 9.05026 18.3752 8.96204 18.3591C8.93713 18.2457 8.92433 18.1301 8.92382 18.0142C8.96634 17.0612 9.34898 16.1518 10.0067 15.4407C10.7449 14.6211 11.7796 14.1056 12.8985 14C12.9251 14.1256 12.9379 14.2535 12.9367 14.3817C12.9124 15.3538 12.5437 16.2883 11.8921 17.0291C11.5664 17.4175 11.1625 17.7379 10.7048 17.9708C10.2471 18.2036 9.74519 18.3441 9.22959 18.3836Z" fill="black" fill-opacity="0.8"/>
</svg>
