<svg width="18" height="48" viewBox="0 0 18 48" fill="none" xmlns="http://www.w3.org/2000/svg">
<path d="M16.7293 29.9556L12.5538 25.8735C13.5507 24.5736 14.0175 22.944 13.86 21.3135C13.7025 19.6829 12.9325 18.1728 11.7053 17.0877C10.4781 16.0026 8.885 15.4234 7.24745 15.4667C5.6099 15.5101 4.04974 16.173 2.88172 17.3215C1.71369 18.4701 1.02473 20.0189 0.953824 21.6555C0.882917 23.2921 1.43534 24.8946 2.49965 26.1399C3.56395 27.3852 5.06094 28.1805 6.6886 28.3653C8.31626 28.5502 9.95346 28.1109 11.2699 27.136L15.4704 31.2426C15.5549 31.3253 15.6549 31.3905 15.7646 31.4345C15.8743 31.4785 15.9916 31.5005 16.1098 31.4992C16.228 31.4979 16.3448 31.4733 16.4535 31.4268C16.5622 31.3804 16.6607 31.313 16.7433 31.2285C16.826 31.144 16.8912 31.044 16.9352 30.9343C16.9792 30.8246 17.0012 30.7073 16.9999 30.5891C16.9986 30.4709 16.974 30.3541 16.9276 30.2454C16.8811 30.1367 16.8138 30.0383 16.7293 29.9556ZM2.19993 21.9539C2.20135 20.9167 2.5102 19.9033 3.08745 19.0416C3.6647 18.1799 4.48443 17.5087 5.44304 17.1128C6.40166 16.7169 7.45613 16.6141 8.47318 16.8173C9.49023 17.0205 10.4242 17.5206 11.1571 18.2545C11.89 18.9884 12.3888 19.9231 12.5907 20.9404C12.7925 21.9577 12.6882 23.0121 12.2909 23.9701C11.8937 24.9282 11.2214 25.747 10.3589 26.3231C9.49646 26.8991 8.48258 27.2066 7.44543 27.2066C6.05375 27.2041 4.71989 26.6497 3.7365 25.6649C2.75311 24.6802 2.20051 23.3456 2.19993 21.9539Z" fill="black" fill-opacity="0.8"/>
</svg>
