<svg width="12" height="12" viewBox="0 0 12 12" fill="none" xmlns="http://www.w3.org/2000/svg">
<path d="M2.99994 9.15018V2.86218C2.98455 2.73999 2.99545 2.61592 3.03192 2.49829C3.06839 2.38066 3.12958 2.27218 3.2114 2.18014C3.29322 2.08809 3.39377 2.0146 3.50632 1.96459C3.61886 1.91458 3.74079 1.88921 3.86394 1.89018C4.10004 1.8801 4.33324 1.94523 4.52994 2.07618L9.64794 5.07618C10.1039 5.34018 10.3499 5.55618 10.3499 5.98218C10.3499 6.40818 10.1039 6.62418 9.64794 6.88818L4.52994 9.88818C4.33324 10.0191 4.10004 10.0843 3.86394 10.0742C3.74473 10.0763 3.6264 10.0533 3.5166 10.0068C3.40681 9.96034 3.308 9.89131 3.22656 9.80422C3.14513 9.71713 3.08288 9.61391 3.04384 9.50125C3.0048 9.38859 2.98985 9.26898 2.99994 9.15018Z" fill="black"/>
</svg>
